<svg width="531" height="531" viewBox="0 0 531 531" fill="none" xmlns="http://www.w3.org/2000/svg"><g opacity=".2"><mask id="b" style="mask-type:alpha" maskUnits="userSpaceOnUse" x="0" y="0" width="531" height="531"><path fill="url(#a)" d="M0 0h531v531H0z"/></mask><g mask="url(#b)" stroke="#cfaa62" stroke-width="4" stroke-miterlimit="1.5" stroke-linecap="round" stroke-linejoin="round"><g clip-path="url(#c)"><path d="M154 79c0-2-2-4-3-5-3-1-6 1-8 2-5 2-10 3-14 0-5-4-7-11-12-15-6-5-14-6-21-9L79 42c-10-5-26-8-38-6-10 1-20 3-30 7-6 2-11 5-17 6-15 3-32-6-44 6-11 10-11 27-6 40 3 8 10 15 6 24-4 7-12 9-18 12-12 6-23 16-21 31"/><path d="m-26 137-3-10c1-8 9-14 16-16 3-1 14-4 17-2 3 1 4 5 5 8l1 6c0 2-4 2-5 3a28 28 0 0 0-20 19c-1 4 0 10-4 12-3 1-8-2-11-4-6-3-13-7-21-6-6 1-11 4-16 9-2 3-3 7-1 10s6 3 9 2c5-1 10-2 14-1 12 2 22 17 34 13 7-2 9-13 13-19 7-10 20-13 32-12"/><path d="M172 128c-5-8-6-19-13-24-12-9-33 2-34 17-1 10 3 19 6 29 2 4 4 12 2 16-3 7-9 7-15 10l-18 11c-12 7-26 13-39 5-8-4-14-12-22-17-7-4-18-8-23 1-7 13 8 15 15 19 6 4 9 11 15 16s26 7 17 21l-7 8c-2 4-5 8-9 10-6 4-9 0-10-6-3-12-1-25-14-33-11-7-24-3-36-6-11-2-18-10-28-13m214-63 3 3c7 6 13-4 15-10l2-3a37 37 0 0 1 6-12c4-5 12-6 16 0l4 10c1 7 0 17-6 22l-11 7-13 11c-2 3-5 6-6 10-2 5-4 10-7 13-6 7-17 12-15 23 2 8 15 5 20 3l4-2c10-8 9-24 16-34 3-4 9-9 14-4 10 11-3 25-7 36-3 7-1 16-8 20l-5 2c-5 2-11 2-16 1-5-2-9-6-14-5"/><path d="M148 122c-2 14 9 22 9 35 0 16-17 36-26 49"/><path d="M119 195c-8 10-15 7-24 15-4 4-12 11-10 17 1 6 8 13 13 12 10-2 26-19 35-13 7 4 10 10 17 14 6 4 13 2 20 4 6 2 11 7 16 9 9 3 21-1 28 7s5 18 6 28c0 7 3 14 5 20"/><path d="M147 291c16 9 27 16 47 15 11-1 13-19 5-25-6-5-15-3-22-4-9 0-20-1-29-5s-14-12-22-17c-2-1-7-5-9-2-6 10 4 21 9 30 3 7 5 15 6 23M0 258c5-7 12-7 17 0 8 8 9 21 22 21 20 1 22-24 39-32"/><path d="M19 286c6 10 18 18 30 14 10-2 20-11 27-18 4-5 12-19 19-17 5 2 8 8 9 13 2 10-2 21 4 31"/><path d="M91 289c0 8-6 15-1 41m1-367c0 8-6 15-1 41M77 307c-11 12-34 27-47 14-24-23-24 13-25 25"/><path d="M77 307c-11 12-34 27-47 14-24-23-24 13-25 25M77-19C66-7 43 8 30-5 14-20 9-10 6 2"/><path d="M13-24C9-12 6 25-15 23M7-42C0-37-5-32-9-23c-4 8-5 18-13 23-12 8-21-1-33-2-17 0-36 23-74 0M7 284c-7 5-12 11-16 19s-5 18-13 24c-12 7-21-2-33-3-19-2-29 23-73 1M17 20c15-3 30-7 45-4 12 2 23 10 35 13 19 5 30 1 42 19m28-24c-7 10-16 22-14 36m35-33c-6 8-16 16-18 26-1 6 2 12 1 18 0 3 0 18 4 19 8 4 20-13 29-13"/><path d="M183 59c11-1 22-3 32-7M113 14c12 5 27-20 80-22"/><path d="M113 14c12 5 27-20 80-22m-80 348c12 6 44-36 106-6"/><path d="M113 14c14 5 44-36 110-4M107 146c4 24-31 40-47 24a37 37 0 0 1-6-40c3-7 14-18 8-24-2-3-7-2-10-1-8 2-30 17-30-2v-6c3-7 12-10 19-12 15-3 39-3 48 13 5 8-1 13-5 19-5 5-10 12-12 19-3 6-3 14 3 18 5 4 11 0 14-4l4-15 9-13 7-17c2-5 5-11 3-16-2-6-11-4-16-8L77 67c-15-7-35-6-50-1-9 2-15 10-23 11-11 3-20-5-30-4-7 2-10 12-5 17 9 10 23-4 33 1m7 135c-14 4-25 9-29 24l-1 10c1 10 5 24-10 24-17-1-13-27-11-37l3-12c4-5 11-7 14-12 2-4 0-8-3-10-15-12-36 6-37 22-1 9 5 19 1 28-4 8-13 7-18 1-4-6-11-13-11-20v-21c-1-8-2-23 5-28"/></g><g clip-path="url(#d)"><path d="M480 405c0-2-2-4-3-5-3-1-6 1-8 2-5 2-10 3-14 0-5-4-7-11-12-15-6-5-14-6-21-9l-17-10c-10-5-26-7-38-6-10 1-20 3-30 7-6 2-11 5-17 6-15 3-32-6-44 6-11 10-11 27-6 40 3 8 10 15 6 24-4 7-12 9-18 12-12 6-23 16-21 31"/><path d="m300 463-3-10c1-8 9-14 16-16 3-1 14-4 17-2 3 1 4 5 5 8l1 6c0 2-4 2-5 3a28 28 0 0 0-20 19c-1 4 0 10-4 12-3 1-8-2-11-4-6-3-13-6-21-5-6 0-11 3-16 8-2 3-3 7-1 10s6 3 10 2 9-2 14-1c11 2 21 17 33 13 7-2 9-13 13-19 7-10 20-13 32-12"/><path d="M498 454c-4-8-6-19-13-24-12-9-33 2-34 17-1 10 3 19 6 29 2 4 4 12 2 16-3 7-9 8-15 10l-18 11c-12 7-26 13-39 5-8-4-14-12-22-17-7-4-18-8-23 1-7 13 9 15 15 19l15 16c6 5 26 7 17 21l-7 8c-2 4-5 8-9 11-6 3-8-1-10-7-3-12-1-25-14-33-11-7-24-3-36-6-11-2-18-10-28-13m214-63 3 3c7 6 13-4 15-10l2-3a37 37 0 0 1 6-11c4-6 12-7 16-1 2 3 4 6 4 10 1 7 0 17-6 22l-11 7-13 11c-2 3-5 6-6 10-2 5-4 10-7 13-6 7-17 12-15 23 2 8 15 5 20 3l4-2c10-8 9-23 16-34 3-4 9-9 14-4 10 11-3 25-7 36-3 7-1 16-8 20l-5 3c-5 1-11 2-16 0s-9-6-14-5m-318-91 3 3c7 6 13-4 15-10l2-3a37 37 0 0 1 6-11c4-6 12-7 16-1l4 10c1 7 0 17-6 22l-11 7-13 11c-2 3-5 6-6 10-2 5-4 10-7 13-6 7-17 12-15 23 2 8 15 5 20 3l4-2c10-8 9-23 16-34 3-4 9-9 14-4 10 11-3 25-7 36-3 7-1 16-8 20l-5 3c-5 1-11 2-16 0s-9-6-14-5"/><path d="M474 448c-2 14 9 22 9 35 0 16-17 36-26 49"/><path d="M445 521c-8 10-15 7-24 15-4 4-12 11-10 17 1 6 8 13 13 12 10-2 26-19 35-13 7 4 10 10 17 14 6 4 13 2 21 4l15 9c9 3 21-1 28 7s5 18 6 28c0 7 3 14 5 20M122 516c-7 10-19 13-28 21-5 4-9 8-8 14 2 6 9 7 14 6 10-1 24-11 33-5 7 4 10 10 17 14 6 4 13 2 20 4 6 2 11 7 16 9 9 3 21-1 28 7s5 18 6 28c0 7 3 14 5 20m192-345c0 8-6 15-1 41m-13-23c-11 12-34 27-47 14-16-15-21-5-24 7"/><path d="M339 302c-4 12-7 49-28 48m22-66c-7 5-12 10-16 19-4 8-5 18-13 23-12 8-21-1-33-2-17 0-36 23-74 0m146 22c15-3 30-7 45-4 12 2 23 10 35 13 19 5 30 1 42 19m28-24c-7 10-16 22-14 36m35-33c-6 8-16 16-18 27-1 5 2 11 1 17 0 3 0 18 4 19 8 4 20-13 30-13m-321-48c33 4 31-11 76-14m-103 44c11-1 22-3 32-7"/><path d="M509 385c11-1 22-3 32-7M254 525l-4 16m189-201c12 5 27-20 80-22"/><path d="M439 340c12 5 27-20 80-22"/><path d="M439 340c14 5 44-36 110-4m-313 39c-2 0-4 0-6 2-3 2-4 6-3 10 0 8 3 15 4 22l1 23c0 6 1 13 8 13 15-2 12-19 10-29a64 64 0 0 1 1-34l5-13c8-12 25-14 37-12l17 5m123 110c4 24-30 40-47 24a37 37 0 0 1-6-40c3-7 14-18 8-24-2-3-7-2-10-1-8 2-30 17-30-2v-6c3-7 12-10 19-12 15-3 39-3 48 13 5 8-1 13-5 19-5 5-10 12-12 19-3 6-3 14 3 18 5 4 11 0 14-4l4-15 9-13 7-17c2-5 5-11 3-16-2-6-11-4-16-8l-19-14c-15-7-35-6-50-1-9 2-15 10-23 11-11 3-20-5-30-4-7 2-10 12-5 17 9 10 23-4 33 1m7 135c-13 4-25 9-29 24l-1 10c1 10 5 24-10 24-17-1-13-27-11-37l3-12c4-5 11-6 14-12 2-4 0-8-3-10-15-12-36 6-37 22-1 9 5 19 1 28-4 8-13 7-18 1-4-6-11-13-11-20v-21c-1-8-2-22 5-28"/></g><g clip-path="url(#e)"><path d="M480 79c0-2-2-4-3-5-3-1-6 1-8 2-5 2-10 3-14 0-5-4-7-11-12-15-6-5-14-6-21-9l-17-10c-10-5-26-8-38-6-10 1-20 3-30 7-6 2-11 5-17 6-15 3-32-6-44 6-11 10-11 27-6 40 3 8 10 15 6 24-4 7-12 9-18 12-12 6-23 16-21 31"/><path d="m300 137-3-10c1-8 9-14 16-16 3-1 14-4 17-2 3 1 4 5 5 8l1 6c0 2-4 2-5 3a28 28 0 0 0-20 19c-1 4 0 10-4 12-3 1-8-2-11-4-6-3-13-7-21-6-6 1-11 4-16 9-2 3-3 7-1 10s6 3 10 2 9-2 14-1c11 2 21 17 33 13 7-2 9-13 13-19 7-10 20-13 32-12"/><path d="M498 128c-4-8-6-19-13-24-12-9-33 2-34 17-1 10 3 19 6 29 2 4 4 12 2 16-3 7-9 7-15 10l-18 11c-12 7-26 13-39 5-8-4-14-12-22-17-7-4-18-8-23 1-7 13 9 15 15 19s9 11 15 16 26 7 17 21l-7 8c-2 4-5 8-9 10-6 4-8 0-10-6-3-12-1-25-14-33-11-7-24-3-36-6-11-2-18-10-28-13m214-63 3 3c7 6 13-4 15-10l2-3a37 37 0 0 1 6-12c4-5 12-6 16 0 2 3 4 6 4 10 1 7 0 17-6 22l-11 7-13 11c-2 3-5 6-6 10-2 5-4 10-7 13-6 7-17 12-15 23 2 8 15 5 20 3l4-2c10-8 9-24 16-34 3-4 9-9 14-4 10 11-3 25-7 36-3 7-1 16-8 20l-5 2c-5 2-11 2-16 1-5-2-9-6-14-5m-318-91 3 3c7 6 13-4 15-10l2-3a37 37 0 0 1 6-12c4-5 12-6 16 0l4 10c1 7 0 17-6 22l-11 7-13 11c-2 3-5 6-6 10-2 5-4 10-7 13-6 7-17 12-15 23 2 8 15 5 20 3l4-2c10-8 9-24 16-34 3-4 9-9 14-4 10 11-3 25-7 36-3 7-1 16-8 20l-5 2c-5 2-11 2-16 1-5-2-9-6-14-5"/><path d="M474 122c-2 14 9 22 9 35 0 16-17 36-26 49"/><path d="M445 195c-8 10-15 7-24 15-4 4-12 11-10 17 1 6 8 13 13 12 10-2 26-19 35-13 7 4 10 10 17 14 6 4 13 2 21 4l15 9c9 3 21-1 28 7s5 18 6 28c0 7 3 14 5 20M122 190c-7 10-19 13-28 21-5 4-9 8-8 14 2 6 9 7 14 6 10-1 24-11 33-5 7 4 10 10 17 14 6 4 13 2 20 4 6 2 11 7 16 9 9 3 21-1 28 7s5 18 6 28c0 7 3 14 5 20"/><path d="M473 291c16 9 27 16 47 15 11-1 13-19 5-25-6-5-15-3-22-4-9 0-20-1-29-5s-14-12-22-17c-2-1-7-5-9-2-6 10 4 21 9 30 3 7 5 15 6 23m-311-15c16 9 27 16 47 15 11-1 13-19 5-25-6-5-15-3-22-4-9 0-20-1-29-5s-14-12-22-17c-2-1-7-5-9-2-6 10 4 21 9 30 3 7 5 15 6 23m194-48c5-7 12-7 18 0 7 8 8 21 21 21 20 1 23-24 39-32"/><path d="M345 286c6 10 18 18 30 14 10-2 20-11 27-18 5-5 12-19 19-17 5 2 8 8 9 13 2 10-2 21 4 31"/><path d="M417 289c0 8-6 15-1 41m1-367c0 8-6 15-1 41m-13 303c-11 12-34 27-47 14-24-23-24 13-25 25"/><path d="M403 307c-11 12-34 27-47 14-24-23-24 13-25 25m72-365C392-7 369 8 356-5c-16-15-21-5-24 7"/><path d="M339-24c-4 12-7 49-28 47m22-65c-7 5-12 10-16 19-4 8-5 18-13 23-12 8-21-1-33-2-17 0-36 23-74 0m136 286c-7 5-12 11-16 19s-5 18-13 24c-12 7-21-2-33-3-19-2-29 23-73 1"/><path d="M244 309c-5-24 13-29 42-4m57-285c15-3 30-7 45-4 12 2 23 10 35 13 19 5 30 1 42 19m28-24c-7 10-16 22-14 36m35-33c-6 8-16 16-18 26-1 6 2 12 1 18 0 3 0 18 4 19 8 4 20-13 30-13M210 29c33 4 31-11 76-14M183 59c11-1 22-3 32-7"/><path d="M509 59c11-1 22-3 32-7M254 199l-4 16M439 14c12 5 27-20 80-22"/><path d="M439 14c12 5 27-20 80-22m-80 348c12 6 44-36 106-6"/><path d="M439 14c14 5 44-36 110-4M236 49c-2 0-4 0-6 2-3 2-4 6-3 10 0 8 3 15 4 22l1 23c0 6 1 13 8 13 15-2 12-19 10-29a64 64 0 0 1 1-34l5-13c8-12 25-14 37-12l17 5m123 110c4 24-30 40-47 24a37 37 0 0 1-6-40c3-7 14-18 8-24-2-3-7-2-10-1-8 2-30 17-30-2v-6c3-7 12-10 19-12 15-3 39-3 48 13 5 8-1 13-5 19-5 5-10 12-12 19-3 6-3 14 3 18 5 4 11 0 14-4l4-15 9-13 7-17c2-5 5-11 3-16-2-6-11-4-16-8l-19-14c-15-7-35-6-50-1-9 2-15 10-23 11-11 3-20-5-30-4-7 2-10 12-5 17 9 10 23-4 33 1m7 135c-13 4-25 9-29 24l-1 10c1 10 5 24-10 24-17-1-13-27-11-37l3-12c4-5 11-7 14-12 2-4 0-8-3-10-15-12-36 6-37 22-1 9 5 19 1 28-4 8-13 7-18 1-4-6-11-13-11-20v-21c-1-8-2-23 5-28"/></g></g></g><defs><clipPath id="c"><path fill="#fff" transform="translate(-121)" d="M0 0h326v326H0z"/></clipPath><clipPath id="d"><path fill="#fff" transform="translate(205 326)" d="M0 0h326v326H0z"/></clipPath><clipPath id="e"><path fill="#fff" transform="translate(205)" d="M0 0h326v326H0z"/></clipPath><radialGradient id="a" cx="0" cy="0" r="1" gradientUnits="userSpaceOnUse" gradientTransform="rotate(135 266 110) scale(502.058)"><stop stop-color="#fff"/><stop offset="1" stop-color="#fff" stop-opacity="0"/></radialGradient></defs></svg>